<svg xmlns="http://www.w3.org/2000/svg" version="1.1" xmlns:xlink="http://www.w3.org/1999/xlink" width="1000" height="1000"><g clip-path="url(#SvgjsClipPath1039)"><rect width="1000" height="1000" fill="#f9423a"></rect><g transform="matrix(1.7578125,0,0,1.7578125,50,50)"><svg xmlns="http://www.w3.org/2000/svg" version="1.1" xmlns:xlink="http://www.w3.org/1999/xlink" width="512" height="512"><svg width="512" height="512" viewBox="0 0 512 512" fill="none" xmlns="http://www.w3.org/2000/svg">
<rect width="512" height="512" fill="#F9423A"></rect>
<path d="M305.062 377.204C305.361 364.081 302.914 351.04 297.876 338.908L223.135 429.602C227.363 433.989 232.477 437.435 238.142 439.711C243.806 441.987 249.892 443.042 255.996 442.807C288.857 442.807 305.062 415.5 305.062 377.204ZM206.423 377.204C206.118 390.33 208.576 403.375 213.638 415.5L288.406 324.806C284.21 320.517 279.16 317.147 273.579 314.912C267.998 312.676 262.009 311.625 255.996 311.826C222.91 311.826 206.479 339.132 206.479 377.204H206.423ZM323.296 377.204C323.296 423.771 300.102 458.507 255.996 458.507C211.439 458.507 188.358 423.799 188.358 377.204C188.358 330.609 211.552 296.154 255.996 296.154C300.102 296.154 323.296 330.862 323.296 377.204Z" fill="white"></path>
<path d="M370.137 253.205H144.845V268.204H370.137V253.205Z" fill="white"></path>
<path d="M256.027 61.1344C295.877 61.1344 318.029 85.3289 322.651 119.784H304.191C300.612 93.8236 287.281 76.8062 256.027 76.8062C218.91 76.8062 199.662 103.664 199.662 142.185C199.662 180.705 213.753 207.787 250.982 207.787C282.265 207.787 297.117 189.648 296.441 151.717H242.076V137.026H320.396C329.64 137.026 333.924 141.063 333.924 149.362V221.216H315.464V162.342L318.282 142.185H313.21C312.984 197.274 291.593 223.487 250.644 223.487C204.03 223.487 181.089 188.779 181.089 142.185C181.089 95.5898 210.117 61.1344 256.027 61.1344Z" fill="white"></path>
</svg></svg></g></g><defs><clipPath id="SvgjsClipPath1039"><rect width="1000" height="1000" x="0" y="0" rx="0" ry="0"></rect></clipPath></defs></svg>