<?xml version="1.0" encoding="UTF-8"?>
<!-- Generator: Adobe Illustrator 19.0.0, SVG Export Plug-In . SVG Version: 6.00 Build 0)  -->
<svg version="1.1" id="Ebene_1" xmlns="http://www.w3.org/2000/svg" xmlns:xlink="http://www.w3.org/1999/xlink" x="0px" y="0px" viewBox="-259 370.9 76.7 100" style="enable-background:new -259 370.9 76.7 100;" xml:space="preserve">
<style type="text/css">
	.st0{fill:#fc0f47;}
</style>
<path id="XMLID_2_" class="st0" d="M-229.2,371.1c0-0.3,0.2-0.1,0.2,0c10.8,6.5,20.5,14.6,21.7,31.1c0.3,3.5-0.1,6.9,2.5,6.9  c2.1,0,2.7-3.6,3-4.9c0.7-0.4,1.4,0.6,1.7,1c3.8,3.6,7.6,8.7,10.6,13.6c3.6,5.8,7.1,12.9,7.2,20.8c0.1,9.2-5.1,16-10.1,20.8  c-5.4,5.2-11.4,8.9-20,10.1c-0.1-1.4,1.5-2.6,2.2-4.2c1-2.2,2.4-5.7,1.7-9.4c-0.8-4.6-6.5-6-8.6-10.4c-2.2-4.5-0.7-9.4,1.2-14.1  c-4.8,5.4-14.7,12.2-15.6,22.5c-0.5,6.4,1.9,11.4,4.5,16c-16.6-2.3-30.6-10.7-31.9-28.4c-0.5-7.4,1-15.3,3.7-20.8  c1.7,4.4,1.9,10.2,5.7,12.4c2.8-0.7,3.8-2.8,3.5-6.7c-0.6-6.3-5-12.7-4.2-20c0.7-7.2,6-11.4,10.1-15.3c0.6,3.4,0.2,9.3,3.2,9.6  c2.3,0.3,5.1-4.5,6.7-7.2C-226.7,388.6-224.5,377.5-229.2,371.1z"/>
</svg>