<?xml version="1.0" encoding="UTF-8"?><svg id="Layer_1" xmlns="http://www.w3.org/2000/svg" viewBox="0 0 128 128"><defs><style>.cls-1{fill:#f9423a;}</style></defs><rect class="cls-1" x="70.68" width="4" height="10.44"/><rect class="cls-1" x="58.23" y="4.07" width="4" height="10.45" transform="translate(3.47 31.5) rotate(-30.14)"/><rect class="cls-1" x="49.49" y="13.79" width="4" height="10.48" transform="translate(9.36 54.22) rotate(-60.15)"/><rect class="cls-1" x="43.57" y="29.8" width="10.5" height="4"/><rect class="cls-1" x="47.68" y="42.18" width="10.48" height="4" transform="translate(-14.97 32.22) rotate(-29.87)"/><rect class="cls-1" x="94.73" y="36.47" width="4" height="10.48" transform="translate(12.39 104.83) rotate(-60.14)"/><rect class="cls-1" x="94.15" y="26.95" width="10.5" height="4"/><rect class="cls-1" x="90.05" y="14.57" width="10.49" height="4" transform="translate(4.41 49.66) rotate(-29.87)"/><rect class="cls-1" x="80.29" y="5.88" width="10.46" height="4" transform="translate(35.81 77.91) rotate(-59.89)"/><path class="cls-1" d="M92.89,119.16h-28.53c-5.71,0-10.98-2.48-14.62-6.83h-7.65v-4h9.62l.6.8c2.88,3.83,7.27,6.03,12.05,6.03l35.32-.04c3.16,0,5.73-2.55,5.73-5.69s-2.57-5.69-5.73-5.69v-4h6.19c3.16,0,5.73-2.55,5.73-5.69s-2.57-5.69-5.73-5.69v-4h2.06c3.16,0,5.73-2.55,5.73-5.69s-2.57-5.69-5.73-5.69v-4h4.12c3.16,0,5.73-2.55,5.73-5.69s-2.57-5.69-5.73-5.69h-21.65c-.31,0-.63.03-.95.09l-.35.03h-11.32l3.37-11.84v-10.56c0-4.21-3.45-7.63-7.69-7.63h-1.62v13.4l-4.28,5.97-14.08,15.3c-1.82,1.91-3.1,4.24-3.72,6.77l-.37,1.52h-7.29v-4h4.22c.88-2.62,2.33-5.02,4.25-7.03l13.97-15.18,3.31-4.64v-15.98l1.88-.12c.23-.02.38-.02.52-.02h3.22c6.45,0,11.69,5.22,11.69,11.63v11.11l-2.07,7.28h5.85c.49-.08.98-.12,1.47-.12h21.65c5.36,0,9.73,4.35,9.73,9.69,0,4.19-2.68,7.77-6.43,9.12,1.44,1.69,2.31,3.88,2.31,6.26,0,3.63-2.01,6.8-4.99,8.46,1.81,1.76,2.93,4.21,2.93,6.92,0,4.8-3.53,8.8-8.14,9.56,1.23,1.62,1.95,3.64,1.95,5.82,0,5.34-4.36,9.69-9.73,9.69l-6.79.04Z"/><polygon class="cls-1" points="36.58 128 6.22 128 6.22 124 32.58 124 32.58 67.52 6.22 67.52 6.22 63.52 36.58 63.52 36.58 128"/><rect class="cls-1" x="22.24" y="115.33" width="5.3" height="4"/></svg>